<svg xmlns="http://www.w3.org/2000/svg" version="1.1" xmlns:xlink="http://www.w3.org/1999/xlink" xmlns:svgjs="http://svgjs.com/svgjs" width="1440" height="560" preserveAspectRatio="none" viewBox="0 0 1440 560"><g mask="url(&quot;#SvgjsMask1946&quot;)" fill="none"><rect width="1440" height="560" x="0" y="0" fill="url(#SvgjsLinearGradient1947)"></rect><path d="M-93.79 403.2L-93.79 403.2" stroke="rgba(79, 85, 27, 1)" stroke-width="1.5"></path><path d="M-93.79 403.2L-77.32 497.3" stroke="rgba(79, 85, 27, 1)" stroke-width="1.5"></path><path d="M-93.79 403.2L53.72 489.49" stroke="rgba(79, 85, 27, 1)" stroke-width="1.5"></path><path d="M-93.79 403.2L109.39 403.69" stroke="rgba(79, 85, 27, 1)" stroke-width="1.5"></path><path d="M-93.79 403.2L-105.91 656.33" stroke="rgba(79, 85, 27, 1)" stroke-width="1.5"></path><path d="M-93.79 403.2L217.85 407.78" stroke="rgba(79, 85, 27, 1)" stroke-width="1.5"></path><path d="M-93.79 403.2L84.28 671.11" stroke="rgba(79, 85, 27, 1)" stroke-width="1.5"></path><path d="M-77.32 497.3L-77.32 497.3" stroke="rgba(79, 85, 27, 1)" stroke-width="1.5"></path><path d="M-105.91 656.33L-105.91 656.33" stroke="rgba(79, 85, 27, 1)" stroke-width="1.5"></path><path d="M-105.91 656.33L-77.32 497.3" stroke="rgba(79, 85, 27, 1)" stroke-width="1.5"></path><path d="M-105.91 656.33L84.28 671.11" stroke="rgba(79, 85, 27, 1)" stroke-width="1.5"></path><path d="M-105.91 656.33L53.72 489.49" stroke="rgba(79, 85, 27, 1)" stroke-width="1.5"></path><path d="M109.39 403.69L109.39 403.69" stroke="rgba(79, 85, 27, 1)" stroke-width="1.5"></path><path d="M109.39 403.69L53.72 489.49" stroke="rgba(79, 85, 27, 1)" stroke-width="1.5"></path><path d="M109.39 403.69L217.85 407.78" stroke="rgba(79, 85, 27, 1)" stroke-width="1.5"></path><path d="M109.39 403.69L256.23 541.07" stroke="rgba(79, 85, 27, 1)" stroke-width="1.5"></path><path d="M53.72 489.49L53.72 489.49" stroke="rgba(79, 85, 27, 1)" stroke-width="1.5"></path><path d="M53.72 489.49L-77.32 497.3" stroke="rgba(79, 85, 27, 1)" stroke-width="1.5"></path><path d="M53.72 489.49L217.85 407.78" stroke="rgba(79, 85, 27, 1)" stroke-width="1.5"></path><path d="M53.72 489.49L84.28 671.11" stroke="rgba(79, 85, 27, 1)" stroke-width="1.5"></path><path d="M84.28 671.11L84.28 671.11" stroke="rgba(79, 85, 27, 1)" stroke-width="1.5"></path><path d="M84.28 671.11L231.83 670.46" stroke="rgba(79, 85, 27, 1)" stroke-width="1.5"></path><path d="M217.85 407.78L217.85 407.78" stroke="rgba(79, 85, 27, 1)" stroke-width="1.5"></path><path d="M217.85 407.78L256.23 541.07" stroke="rgba(79, 85, 27, 1)" stroke-width="1.5"></path><path d="M217.85 407.78L378.02 347.08" stroke="rgba(79, 85, 27, 1)" stroke-width="1.5"></path><path d="M217.85 407.78L357.52 510.62" stroke="rgba(79, 85, 27, 1)" stroke-width="1.5"></path><path d="M256.23 541.07L256.23 541.07" stroke="rgba(79, 85, 27, 1)" stroke-width="1.5"></path><path d="M256.23 541.07L357.52 510.62" stroke="rgba(79, 85, 27, 1)" stroke-width="1.5"></path><path d="M256.23 541.07L231.83 670.46" stroke="rgba(79, 85, 27, 1)" stroke-width="1.5"></path><path d="M256.23 541.07L369.01 655.4" stroke="rgba(79, 85, 27, 1)" stroke-width="1.5"></path><path d="M256.23 541.07L53.72 489.49" stroke="rgba(79, 85, 27, 1)" stroke-width="1.5"></path><path d="M231.83 670.46L231.83 670.46" stroke="rgba(79, 85, 27, 1)" stroke-width="1.5"></path><path d="M231.83 670.46L369.01 655.4" stroke="rgba(79, 85, 27, 1)" stroke-width="1.5"></path><path d="M231.83 670.46L357.52 510.62" stroke="rgba(79, 85, 27, 1)" stroke-width="1.5"></path><path d="M378.02 347.08L378.02 347.08" stroke="rgba(79, 85, 27, 1)" stroke-width="1.5"></path><path d="M378.02 347.08L357.52 510.62" stroke="rgba(79, 85, 27, 1)" stroke-width="1.5"></path><path d="M378.02 347.08L536.09 410.35" stroke="rgba(79, 85, 27, 1)" stroke-width="1.5"></path><path d="M378.02 347.08L256.23 541.07" stroke="rgba(79, 85, 27, 1)" stroke-width="1.5"></path><path d="M357.52 510.62L357.52 510.62" stroke="rgba(79, 85, 27, 1)" stroke-width="1.5"></path><path d="M357.52 510.62L369.01 655.4" stroke="rgba(79, 85, 27, 1)" stroke-width="1.5"></path><path d="M357.52 510.62L522.66 553.67" stroke="rgba(79, 85, 27, 1)" stroke-width="1.5"></path><path d="M369.01 655.4L369.01 655.4" stroke="rgba(79, 85, 27, 1)" stroke-width="1.5"></path><path d="M369.01 655.4L522.66 553.67" stroke="rgba(79, 85, 27, 1)" stroke-width="1.5"></path><path d="M369.01 655.4L84.28 671.11" stroke="rgba(79, 85, 27, 1)" stroke-width="1.5"></path><path d="M536.09 410.35L536.09 410.35" stroke="rgba(79, 85, 27, 1)" stroke-width="1.5"></path><path d="M536.09 410.35L522.66 553.67" stroke="rgba(79, 85, 27, 1)" stroke-width="1.5"></path><path d="M536.09 410.35L643.66 536.95" stroke="rgba(79, 85, 27, 1)" stroke-width="1.5"></path><path d="M522.66 553.67L522.66 553.67" stroke="rgba(79, 85, 27, 1)" stroke-width="1.5"></path><path d="M522.66 553.67L643.66 536.95" stroke="rgba(79, 85, 27, 1)" stroke-width="1.5"></path><path d="M643.27 248.96L643.27 248.96" stroke="rgba(79, 85, 27, 1)" stroke-width="1.5"></path><path d="M643.27 248.96L822.28 207.61" stroke="rgba(79, 85, 27, 1)" stroke-width="1.5"></path><path d="M643.27 248.96L536.09 410.35" stroke="rgba(79, 85, 27, 1)" stroke-width="1.5"></path><path d="M643.66 536.95L643.66 536.95" stroke="rgba(79, 85, 27, 1)" stroke-width="1.5"></path><path d="M643.66 536.95L699.31 672.63" stroke="rgba(79, 85, 27, 1)" stroke-width="1.5"></path><path d="M643.66 536.95L849.6 551.74" stroke="rgba(79, 85, 27, 1)" stroke-width="1.5"></path><path d="M643.66 536.95L824.81 676.84" stroke="rgba(79, 85, 27, 1)" stroke-width="1.5"></path><path d="M699.31 672.63L699.31 672.63" stroke="rgba(79, 85, 27, 1)" stroke-width="1.5"></path><path d="M699.31 672.63L824.81 676.84" stroke="rgba(79, 85, 27, 1)" stroke-width="1.5"></path><path d="M822.28 207.61L822.28 207.61" stroke="rgba(79, 85, 27, 1)" stroke-width="1.5"></path><path d="M822.28 207.61L811.72 359.13" stroke="rgba(79, 85, 27, 1)" stroke-width="1.5"></path><path d="M822.28 207.61L940.57 347.55" stroke="rgba(79, 85, 27, 1)" stroke-width="1.5"></path><path d="M822.28 207.61L1108.65 200.26" stroke="rgba(79, 85, 27, 1)" stroke-width="1.5"></path><path d="M811.72 359.13L811.72 359.13" stroke="rgba(79, 85, 27, 1)" stroke-width="1.5"></path><path d="M811.72 359.13L940.57 347.55" stroke="rgba(79, 85, 27, 1)" stroke-width="1.5"></path><path d="M849.6 551.74L849.6 551.74" stroke="rgba(79, 85, 27, 1)" stroke-width="1.5"></path><path d="M849.6 551.74L824.81 676.84" stroke="rgba(79, 85, 27, 1)" stroke-width="1.5"></path><path d="M849.6 551.74L983.64 534.14" stroke="rgba(79, 85, 27, 1)" stroke-width="1.5"></path><path d="M849.6 551.74L963.44 705.75" stroke="rgba(79, 85, 27, 1)" stroke-width="1.5"></path><path d="M824.81 676.84L824.81 676.84" stroke="rgba(79, 85, 27, 1)" stroke-width="1.5"></path><path d="M824.81 676.84L963.44 705.75" stroke="rgba(79, 85, 27, 1)" stroke-width="1.5"></path><path d="M824.81 676.84L983.64 534.14" stroke="rgba(79, 85, 27, 1)" stroke-width="1.5"></path><path d="M940.57 347.55L940.57 347.55" stroke="rgba(79, 85, 27, 1)" stroke-width="1.5"></path><path d="M940.57 347.55L1104.56 380.53" stroke="rgba(79, 85, 27, 1)" stroke-width="1.5"></path><path d="M940.57 347.55L983.64 534.14" stroke="rgba(79, 85, 27, 1)" stroke-width="1.5"></path><path d="M940.57 347.55L1108.65 200.26" stroke="rgba(79, 85, 27, 1)" stroke-width="1.5"></path><path d="M940.57 347.55L849.6 551.74" stroke="rgba(79, 85, 27, 1)" stroke-width="1.5"></path><path d="M983.64 534.14L983.64 534.14" stroke="rgba(79, 85, 27, 1)" stroke-width="1.5"></path><path d="M963.44 705.75L963.44 705.75" stroke="rgba(79, 85, 27, 1)" stroke-width="1.5"></path><path d="M963.44 705.75L983.64 534.14" stroke="rgba(79, 85, 27, 1)" stroke-width="1.5"></path><path d="M963.44 705.75L1146.82 681.44" stroke="rgba(79, 85, 27, 1)" stroke-width="1.5"></path><path d="M1113.58 -73.19L1113.58 -73.19" stroke="rgba(79, 85, 27, 1)" stroke-width="1.5"></path><path d="M1113.58 -73.19L1096.14 69.27" stroke="rgba(79, 85, 27, 1)" stroke-width="1.5"></path><path d="M1096.14 69.27L1096.14 69.27" stroke="rgba(79, 85, 27, 1)" stroke-width="1.5"></path><path d="M1096.14 69.27L1108.65 200.26" stroke="rgba(79, 85, 27, 1)" stroke-width="1.5"></path><path d="M1096.14 69.27L1310.83 64.58" stroke="rgba(79, 85, 27, 1)" stroke-width="1.5"></path><path d="M1096.14 69.27L1254.03 -102.89" stroke="rgba(79, 85, 27, 1)" stroke-width="1.5"></path><path d="M1096.14 69.27L1272.73 258.05" stroke="rgba(79, 85, 27, 1)" stroke-width="1.5"></path><path d="M1096.14 69.27L1396.45 63.96" stroke="rgba(79, 85, 27, 1)" stroke-width="1.5"></path><path d="M1108.65 200.26L1108.65 200.26" stroke="rgba(79, 85, 27, 1)" stroke-width="1.5"></path><path d="M1108.65 200.26L1272.73 258.05" stroke="rgba(79, 85, 27, 1)" stroke-width="1.5"></path><path d="M1108.65 200.26L1104.56 380.53" stroke="rgba(79, 85, 27, 1)" stroke-width="1.5"></path><path d="M1108.65 200.26L1292.38 355.28" stroke="rgba(79, 85, 27, 1)" stroke-width="1.5"></path><path d="M1108.65 200.26L1310.83 64.58" stroke="rgba(79, 85, 27, 1)" stroke-width="1.5"></path><path d="M1104.56 380.53L1104.56 380.53" stroke="rgba(79, 85, 27, 1)" stroke-width="1.5"></path><path d="M1104.56 380.53L1292.38 355.28" stroke="rgba(79, 85, 27, 1)" stroke-width="1.5"></path><path d="M1104.56 380.53L983.64 534.14" stroke="rgba(79, 85, 27, 1)" stroke-width="1.5"></path><path d="M1104.56 380.53L1272.73 258.05" stroke="rgba(79, 85, 27, 1)" stroke-width="1.5"></path><path d="M1104.56 380.53L1248.54 533.42" stroke="rgba(79, 85, 27, 1)" stroke-width="1.5"></path><path d="M1146.82 681.44L1146.82 681.44" stroke="rgba(79, 85, 27, 1)" stroke-width="1.5"></path><path d="M1146.82 681.44L1268.49 652.26" stroke="rgba(79, 85, 27, 1)" stroke-width="1.5"></path><path d="M1146.82 681.44L1248.54 533.42" stroke="rgba(79, 85, 27, 1)" stroke-width="1.5"></path><path d="M1146.82 681.44L983.64 534.14" stroke="rgba(79, 85, 27, 1)" stroke-width="1.5"></path><path d="M1254.03 -102.89L1254.03 -102.89" stroke="rgba(79, 85, 27, 1)" stroke-width="1.5"></path><path d="M1254.03 -102.89L1387.63 -88.43" stroke="rgba(79, 85, 27, 1)" stroke-width="1.5"></path><path d="M1254.03 -102.89L1113.58 -73.19" stroke="rgba(79, 85, 27, 1)" stroke-width="1.5"></path><path d="M1310.83 64.58L1310.83 64.58" stroke="rgba(79, 85, 27, 1)" stroke-width="1.5"></path><path d="M1310.83 64.58L1396.45 63.96" stroke="rgba(79, 85, 27, 1)" stroke-width="1.5"></path><path d="M1310.83 64.58L1387.63 -88.43" stroke="rgba(79, 85, 27, 1)" stroke-width="1.5"></path><path d="M1310.83 64.58L1254.03 -102.89" stroke="rgba(79, 85, 27, 1)" stroke-width="1.5"></path><path d="M1272.73 258.05L1272.73 258.05" stroke="rgba(79, 85, 27, 1)" stroke-width="1.5"></path><path d="M1272.73 258.05L1292.38 355.28" stroke="rgba(79, 85, 27, 1)" stroke-width="1.5"></path><path d="M1272.73 258.05L1393.09 233.05" stroke="rgba(79, 85, 27, 1)" stroke-width="1.5"></path><path d="M1272.73 258.05L1401.2 406.45" stroke="rgba(79, 85, 27, 1)" stroke-width="1.5"></path><path d="M1272.73 258.05L1310.83 64.58" stroke="rgba(79, 85, 27, 1)" stroke-width="1.5"></path><path d="M1292.38 355.28L1292.38 355.28" stroke="rgba(79, 85, 27, 1)" stroke-width="1.5"></path><path d="M1292.38 355.28L1401.2 406.45" stroke="rgba(79, 85, 27, 1)" stroke-width="1.5"></path><path d="M1292.38 355.28L1393.09 233.05" stroke="rgba(79, 85, 27, 1)" stroke-width="1.5"></path><path d="M1292.38 355.28L1396.98 493.25" stroke="rgba(79, 85, 27, 1)" stroke-width="1.5"></path><path d="M1292.38 355.28L1248.54 533.42" stroke="rgba(79, 85, 27, 1)" stroke-width="1.5"></path><path d="M1248.54 533.42L1248.54 533.42" stroke="rgba(79, 85, 27, 1)" stroke-width="1.5"></path><path d="M1248.54 533.42L1268.49 652.26" stroke="rgba(79, 85, 27, 1)" stroke-width="1.5"></path><path d="M1248.54 533.42L1396.98 493.25" stroke="rgba(79, 85, 27, 1)" stroke-width="1.5"></path><path d="M1248.54 533.42L1401.2 406.45" stroke="rgba(79, 85, 27, 1)" stroke-width="1.5"></path><path d="M1268.49 652.26L1268.49 652.26" stroke="rgba(79, 85, 27, 1)" stroke-width="1.5"></path><path d="M1268.49 652.26L1402.67 694.21" stroke="rgba(79, 85, 27, 1)" stroke-width="1.5"></path><path d="M1268.49 652.26L1396.98 493.25" stroke="rgba(79, 85, 27, 1)" stroke-width="1.5"></path><path d="M1268.49 652.26L1401.2 406.45" stroke="rgba(79, 85, 27, 1)" stroke-width="1.5"></path><path d="M1268.49 652.26L1292.38 355.28" stroke="rgba(79, 85, 27, 1)" stroke-width="1.5"></path><path d="M1387.63 -88.43L1387.63 -88.43" stroke="rgba(79, 85, 27, 1)" stroke-width="1.5"></path><path d="M1387.63 -88.43L1396.45 63.96" stroke="rgba(79, 85, 27, 1)" stroke-width="1.5"></path><path d="M1387.63 -88.43L1542.19 101.64" stroke="rgba(79, 85, 27, 1)" stroke-width="1.5"></path><path d="M1387.63 -88.43L1113.58 -73.19" stroke="rgba(79, 85, 27, 1)" stroke-width="1.5"></path><path d="M1387.63 -88.43L1393.09 233.05" stroke="rgba(79, 85, 27, 1)" stroke-width="1.5"></path><path d="M1396.45 63.96L1396.45 63.96" stroke="rgba(79, 85, 27, 1)" stroke-width="1.5"></path><path d="M1396.45 63.96L1542.19 101.64" stroke="rgba(79, 85, 27, 1)" stroke-width="1.5"></path><path d="M1396.45 63.96L1393.09 233.05" stroke="rgba(79, 85, 27, 1)" stroke-width="1.5"></path><path d="M1396.45 63.96L1560.48 207.21" stroke="rgba(79, 85, 27, 1)" stroke-width="1.5"></path><path d="M1396.45 63.96L1254.03 -102.89" stroke="rgba(79, 85, 27, 1)" stroke-width="1.5"></path><path d="M1393.09 233.05L1393.09 233.05" stroke="rgba(79, 85, 27, 1)" stroke-width="1.5"></path><path d="M1393.09 233.05L1560.48 207.21" stroke="rgba(79, 85, 27, 1)" stroke-width="1.5"></path><path d="M1393.09 233.05L1401.2 406.45" stroke="rgba(79, 85, 27, 1)" stroke-width="1.5"></path><path d="M1401.2 406.45L1401.2 406.45" stroke="rgba(79, 85, 27, 1)" stroke-width="1.5"></path><path d="M1401.2 406.45L1396.98 493.25" stroke="rgba(79, 85, 27, 1)" stroke-width="1.5"></path><path d="M1401.2 406.45L1589.25 392.65" stroke="rgba(79, 85, 27, 1)" stroke-width="1.5"></path><path d="M1396.98 493.25L1396.98 493.25" stroke="rgba(79, 85, 27, 1)" stroke-width="1.5"></path><path d="M1396.98 493.25L1402.67 694.21" stroke="rgba(79, 85, 27, 1)" stroke-width="1.5"></path><path d="M1402.67 694.21L1402.67 694.21" stroke="rgba(79, 85, 27, 1)" stroke-width="1.5"></path><path d="M1402.67 694.21L1590.66 667.95" stroke="rgba(79, 85, 27, 1)" stroke-width="1.5"></path><path d="M1402.67 694.21L1248.54 533.42" stroke="rgba(79, 85, 27, 1)" stroke-width="1.5"></path><path d="M1542.19 101.64L1542.19 101.64" stroke="rgba(79, 85, 27, 1)" stroke-width="1.5"></path><path d="M1542.19 101.64L1560.48 207.21" stroke="rgba(79, 85, 27, 1)" stroke-width="1.5"></path><path d="M1542.19 101.64L1393.09 233.05" stroke="rgba(79, 85, 27, 1)" stroke-width="1.5"></path><path d="M1542.19 101.64L1310.83 64.58" stroke="rgba(79, 85, 27, 1)" stroke-width="1.5"></path><path d="M1560.48 207.21L1560.48 207.21" stroke="rgba(79, 85, 27, 1)" stroke-width="1.5"></path><path d="M1560.48 207.21L1589.25 392.65" stroke="rgba(79, 85, 27, 1)" stroke-width="1.5"></path><path d="M1560.48 207.21L1401.2 406.45" stroke="rgba(79, 85, 27, 1)" stroke-width="1.5"></path><path d="M1560.48 207.21L1310.83 64.58" stroke="rgba(79, 85, 27, 1)" stroke-width="1.5"></path><path d="M1589.25 392.65L1589.25 392.65" stroke="rgba(79, 85, 27, 1)" stroke-width="1.5"></path><path d="M1589.25 392.65L1396.98 493.25" stroke="rgba(79, 85, 27, 1)" stroke-width="1.5"></path><path d="M1589.25 392.65L1393.09 233.05" stroke="rgba(79, 85, 27, 1)" stroke-width="1.5"></path><path d="M1590.66 667.95L1590.66 667.95" stroke="rgba(79, 85, 27, 1)" stroke-width="1.5"></path><path d="M1590.66 667.95L1396.98 493.25" stroke="rgba(79, 85, 27, 1)" stroke-width="1.5"></path><path d="M1590.66 667.95L1589.25 392.65" stroke="rgba(79, 85, 27, 1)" stroke-width="1.5"></path><path d="M1590.66 667.95L1268.49 652.26" stroke="rgba(79, 85, 27, 1)" stroke-width="1.5"></path><path d="M1590.66 667.95L1401.2 406.45" stroke="rgba(79, 85, 27, 1)" stroke-width="1.5"></path><circle r="5" cx="-93.79" cy="403.2" fill="rgba(79, 85, 27, 1)"></circle><circle r="5" cx="-77.32" cy="497.3" fill="rgba(79, 85, 27, 1)"></circle><circle r="5" cx="-105.91" cy="656.33" fill="rgba(79, 85, 27, 1)"></circle><circle r="5" cx="109.39" cy="403.69" fill="rgba(79, 85, 27, 1)"></circle><circle r="5" cx="53.72" cy="489.49" fill="rgba(79, 85, 27, 1)"></circle><circle r="5" cx="84.28" cy="671.11" fill="rgba(79, 85, 27, 1)"></circle><circle r="5" cx="217.85" cy="407.78" fill="rgba(79, 85, 27, 1)"></circle><circle r="5" cx="256.23" cy="541.07" fill="rgba(79, 85, 27, 1)"></circle><circle r="5" cx="231.83" cy="670.46" fill="rgba(79, 85, 27, 1)"></circle><circle r="5" cx="378.02" cy="347.08" fill="rgba(79, 85, 27, 1)"></circle><circle r="5" cx="357.52" cy="510.62" fill="rgba(79, 85, 27, 1)"></circle><circle r="5" cx="369.01" cy="655.4" fill="rgba(79, 85, 27, 1)"></circle><circle r="5" cx="536.09" cy="410.35" fill="rgba(79, 85, 27, 1)"></circle><circle r="5" cx="522.66" cy="553.67" fill="rgba(79, 85, 27, 1)"></circle><circle r="5" cx="643.27" cy="248.96" fill="rgba(79, 85, 27, 1)"></circle><circle r="5" cx="643.66" cy="536.95" fill="rgba(79, 85, 27, 1)"></circle><circle r="5" cx="699.31" cy="672.63" fill="rgba(79, 85, 27, 1)"></circle><circle r="5" cx="822.28" cy="207.61" fill="rgba(79, 85, 27, 1)"></circle><circle r="5" cx="811.72" cy="359.13" fill="rgba(79, 85, 27, 1)"></circle><circle r="5" cx="849.6" cy="551.74" fill="rgba(79, 85, 27, 1)"></circle><circle r="5" cx="824.81" cy="676.84" fill="rgba(79, 85, 27, 1)"></circle><circle r="5" cx="940.57" cy="347.55" fill="rgba(79, 85, 27, 1)"></circle><circle r="5" cx="983.64" cy="534.14" fill="rgba(79, 85, 27, 1)"></circle><circle r="5" cx="963.44" cy="705.75" fill="rgba(79, 85, 27, 1)"></circle><circle r="5" cx="1113.58" cy="-73.19" fill="rgba(79, 85, 27, 1)"></circle><circle r="5" cx="1096.14" cy="69.27" fill="rgba(79, 85, 27, 1)"></circle><circle r="5" cx="1108.65" cy="200.26" fill="rgba(79, 85, 27, 1)"></circle><circle r="5" cx="1104.56" cy="380.53" fill="rgba(79, 85, 27, 1)"></circle><circle r="5" cx="1146.82" cy="681.44" fill="rgba(79, 85, 27, 1)"></circle><circle r="5" cx="1254.03" cy="-102.89" fill="rgba(79, 85, 27, 1)"></circle><circle r="5" cx="1310.83" cy="64.58" fill="rgba(79, 85, 27, 1)"></circle><circle r="5" cx="1272.73" cy="258.05" fill="rgba(79, 85, 27, 1)"></circle><circle r="5" cx="1292.38" cy="355.28" fill="rgba(79, 85, 27, 1)"></circle><circle r="5" cx="1248.54" cy="533.42" fill="rgba(79, 85, 27, 1)"></circle><circle r="5" cx="1268.49" cy="652.26" fill="rgba(79, 85, 27, 1)"></circle><circle r="5" cx="1387.63" cy="-88.43" fill="rgba(79, 85, 27, 1)"></circle><circle r="5" cx="1396.45" cy="63.96" fill="rgba(79, 85, 27, 1)"></circle><circle r="5" cx="1393.09" cy="233.05" fill="rgba(79, 85, 27, 1)"></circle><circle r="5" cx="1401.2" cy="406.45" fill="rgba(79, 85, 27, 1)"></circle><circle r="5" cx="1396.98" cy="493.25" fill="rgba(79, 85, 27, 1)"></circle><circle r="5" cx="1402.67" cy="694.21" fill="rgba(79, 85, 27, 1)"></circle><circle r="5" cx="1542.19" cy="101.64" fill="rgba(79, 85, 27, 1)"></circle><circle r="5" cx="1560.48" cy="207.21" fill="rgba(79, 85, 27, 1)"></circle><circle r="5" cx="1589.25" cy="392.65" fill="rgba(79, 85, 27, 1)"></circle><circle r="5" cx="1590.66" cy="667.95" fill="rgba(79, 85, 27, 1)"></circle><path d="M-87.62 513.14L-87.62 513.14" stroke="hsl(0, 0%, 55.1%)" stroke-width="1.5"></path><path d="M-87.62 513.14L101.48 522.18" stroke="hsl(0, 0%, 55.1%)" stroke-width="1.5"></path><path d="M-87.62 513.14L-71.81 706.55" stroke="hsl(0, 0%, 55.1%)" stroke-width="1.5"></path><path d="M-87.62 513.14L71.05 700.31" stroke="hsl(0, 0%, 55.1%)" stroke-width="1.5"></path><path d="M-87.62 513.14L190.54 491.26" stroke="hsl(0, 0%, 55.1%)" stroke-width="1.5"></path><path d="M-87.62 513.14L226.82 639" stroke="hsl(0, 0%, 55.1%)" stroke-width="1.5"></path><path d="M-87.62 513.14L367.78 535.69" stroke="hsl(0, 0%, 55.1%)" stroke-width="1.5"></path><path d="M-71.81 706.55L-71.81 706.55" stroke="hsl(0, 0%, 55.1%)" stroke-width="1.5"></path><path d="M-71.81 706.55L71.05 700.31" stroke="hsl(0, 0%, 55.1%)" stroke-width="1.5"></path><path d="M-71.81 706.55L101.48 522.18" stroke="hsl(0, 0%, 55.1%)" stroke-width="1.5"></path><path d="M1004.64 390.75L1004.64 390.75" stroke="hsl(0, 0%, 55.1%)" stroke-width="1.5"></path><path d="M1004.64 390.75L944.24 500.83" stroke="hsl(0, 0%, 55.1%)" stroke-width="1.5"></path><path d="M1004.64 390.75L1103.39 536.55" stroke="hsl(0, 0%, 55.1%)" stroke-width="1.5"></path><path d="M1004.64 390.75L813.88 392.48" stroke="hsl(0, 0%, 55.1%)" stroke-width="1.5"></path><path d="M1142.87 83.19L1142.87 83.19" stroke="hsl(0, 0%, 55.1%)" stroke-width="1.5"></path><path d="M1142.87 83.19L1278.36 107.94" stroke="hsl(0, 0%, 55.1%)" stroke-width="1.5"></path><path d="M1142.87 83.19L1159.28 229.28" stroke="hsl(0, 0%, 55.1%)" stroke-width="1.5"></path><path d="M1142.87 83.19L1266.11 222.92" stroke="hsl(0, 0%, 55.1%)" stroke-width="1.5"></path><path d="M1142.87 83.19L1282.59 -101.86" stroke="hsl(0, 0%, 55.1%)" stroke-width="1.5"></path><path d="M1142.87 83.19L1451.14 98.6" stroke="hsl(0, 0%, 55.1%)" stroke-width="1.5"></path><path d="M1451.14 98.6L1451.14 98.6" stroke="hsl(0, 0%, 55.1%)" stroke-width="1.5"></path><path d="M1451.14 98.6L1551.72 87.04" stroke="hsl(0, 0%, 55.1%)" stroke-width="1.5"></path><path d="M1451.14 98.6L1462.36 247.54" stroke="hsl(0, 0%, 55.1%)" stroke-width="1.5"></path><path d="M1451.14 98.6L1543.95 224.24" stroke="hsl(0, 0%, 55.1%)" stroke-width="1.5"></path><path d="M1451.14 98.6L1278.36 107.94" stroke="hsl(0, 0%, 55.1%)" stroke-width="1.5"></path><path d="M1551.72 87.04L1551.72 87.04" stroke="hsl(0, 0%, 55.1%)" stroke-width="1.5"></path><path d="M1551.72 87.04L1543.95 224.24" stroke="hsl(0, 0%, 55.1%)" stroke-width="1.5"></path><path d="M1551.72 87.04L1584.68 -67.73" stroke="hsl(0, 0%, 55.1%)" stroke-width="1.5"></path><path d="M1577.51 487.99L1577.51 487.99" stroke="hsl(0, 0%, 55.1%)" stroke-width="1.5"></path><path d="M1577.51 487.99L1604.68 396.59" stroke="hsl(0, 0%, 55.1%)" stroke-width="1.5"></path><path d="M1577.51 487.99L1452.37 544.96" stroke="hsl(0, 0%, 55.1%)" stroke-width="1.5"></path><path d="M1577.51 487.99L1577.78 653.66" stroke="hsl(0, 0%, 55.1%)" stroke-width="1.5"></path><path d="M1577.51 487.99L1424.09 376.69" stroke="hsl(0, 0%, 55.1%)" stroke-width="1.5"></path><path d="M101.48 522.18L101.48 522.18" stroke="hsl(0, 0%, 55.1%)" stroke-width="1.5"></path><path d="M101.48 522.18L190.54 491.26" stroke="hsl(0, 0%, 55.1%)" stroke-width="1.5"></path><path d="M101.48 522.18L226.82 639" stroke="hsl(0, 0%, 55.1%)" stroke-width="1.5"></path><path d="M101.48 522.18L71.05 700.31" stroke="hsl(0, 0%, 55.1%)" stroke-width="1.5"></path><path d="M71.05 700.31L71.05 700.31" stroke="hsl(0, 0%, 55.1%)" stroke-width="1.5"></path><path d="M71.05 700.31L226.82 639" stroke="hsl(0, 0%, 55.1%)" stroke-width="1.5"></path><path d="M190.54 491.26L190.54 491.26" stroke="hsl(0, 0%, 55.1%)" stroke-width="1.5"></path><path d="M190.54 491.26L226.82 639" stroke="hsl(0, 0%, 55.1%)" stroke-width="1.5"></path><path d="M190.54 491.26L367.78 535.69" stroke="hsl(0, 0%, 55.1%)" stroke-width="1.5"></path><path d="M190.54 491.26L71.05 700.31" stroke="hsl(0, 0%, 55.1%)" stroke-width="1.5"></path><path d="M190.54 491.26L374.94 708.77" stroke="hsl(0, 0%, 55.1%)" stroke-width="1.5"></path><path d="M226.82 639L226.82 639" stroke="hsl(0, 0%, 55.1%)" stroke-width="1.5"></path><path d="M226.82 639L374.94 708.77" stroke="hsl(0, 0%, 55.1%)" stroke-width="1.5"></path><path d="M226.82 639L367.78 535.69" stroke="hsl(0, 0%, 55.1%)" stroke-width="1.5"></path><path d="M226.82 639L524.79 649.38" stroke="hsl(0, 0%, 55.1%)" stroke-width="1.5"></path><path d="M367.78 535.69L367.78 535.69" stroke="hsl(0, 0%, 55.1%)" stroke-width="1.5"></path><path d="M367.78 535.69L494.27 488.44" stroke="hsl(0, 0%, 55.1%)" stroke-width="1.5"></path><path d="M367.78 535.69L374.94 708.77" stroke="hsl(0, 0%, 55.1%)" stroke-width="1.5"></path><path d="M367.78 535.69L524.79 649.38" stroke="hsl(0, 0%, 55.1%)" stroke-width="1.5"></path><path d="M367.78 535.69L101.48 522.18" stroke="hsl(0, 0%, 55.1%)" stroke-width="1.5"></path><path d="M374.94 708.77L374.94 708.77" stroke="hsl(0, 0%, 55.1%)" stroke-width="1.5"></path><path d="M374.94 708.77L524.79 649.38" stroke="hsl(0, 0%, 55.1%)" stroke-width="1.5"></path><path d="M494.27 488.44L494.27 488.44" stroke="hsl(0, 0%, 55.1%)" stroke-width="1.5"></path><path d="M494.27 488.44L524.79 649.38" stroke="hsl(0, 0%, 55.1%)" stroke-width="1.5"></path><path d="M494.27 488.44L664.37 546.57" stroke="hsl(0, 0%, 55.1%)" stroke-width="1.5"></path><path d="M494.27 488.44L711.14 395.87" stroke="hsl(0, 0%, 55.1%)" stroke-width="1.5"></path><path d="M494.27 488.44L374.94 708.77" stroke="hsl(0, 0%, 55.1%)" stroke-width="1.5"></path><path d="M524.79 649.38L524.79 649.38" stroke="hsl(0, 0%, 55.1%)" stroke-width="1.5"></path><path d="M711.14 395.87L711.14 395.87" stroke="hsl(0, 0%, 55.1%)" stroke-width="1.5"></path><path d="M711.14 395.87L813.88 392.48" stroke="hsl(0, 0%, 55.1%)" stroke-width="1.5"></path><path d="M711.14 395.87L664.37 546.57" stroke="hsl(0, 0%, 55.1%)" stroke-width="1.5"></path><path d="M711.14 395.87L829.51 502.57" stroke="hsl(0, 0%, 55.1%)" stroke-width="1.5"></path><path d="M664.37 546.57L664.37 546.57" stroke="hsl(0, 0%, 55.1%)" stroke-width="1.5"></path><path d="M664.37 546.57L829.51 502.57" stroke="hsl(0, 0%, 55.1%)" stroke-width="1.5"></path><path d="M813.88 392.48L813.88 392.48" stroke="hsl(0, 0%, 55.1%)" stroke-width="1.5"></path><path d="M813.88 392.48L829.51 502.57" stroke="hsl(0, 0%, 55.1%)" stroke-width="1.5"></path><path d="M829.51 502.57L829.51 502.57" stroke="hsl(0, 0%, 55.1%)" stroke-width="1.5"></path><path d="M829.51 502.57L944.24 500.83" stroke="hsl(0, 0%, 55.1%)" stroke-width="1.5"></path><path d="M822.37 679.55L822.37 679.55" stroke="hsl(0, 0%, 55.1%)" stroke-width="1.5"></path><path d="M822.37 679.55L971.33 706" stroke="hsl(0, 0%, 55.1%)" stroke-width="1.5"></path><path d="M822.37 679.55L829.51 502.57" stroke="hsl(0, 0%, 55.1%)" stroke-width="1.5"></path><path d="M822.37 679.55L664.37 546.57" stroke="hsl(0, 0%, 55.1%)" stroke-width="1.5"></path><path d="M822.37 679.55L944.24 500.83" stroke="hsl(0, 0%, 55.1%)" stroke-width="1.5"></path><path d="M944.24 500.83L944.24 500.83" stroke="hsl(0, 0%, 55.1%)" stroke-width="1.5"></path><path d="M944.24 500.83L1103.39 536.55" stroke="hsl(0, 0%, 55.1%)" stroke-width="1.5"></path><path d="M971.33 706L971.33 706" stroke="hsl(0, 0%, 55.1%)" stroke-width="1.5"></path><path d="M971.33 706L1088.73 674.4" stroke="hsl(0, 0%, 55.1%)" stroke-width="1.5"></path><path d="M971.33 706L944.24 500.83" stroke="hsl(0, 0%, 55.1%)" stroke-width="1.5"></path><path d="M971.33 706L1103.39 536.55" stroke="hsl(0, 0%, 55.1%)" stroke-width="1.5"></path><path d="M971.33 706L829.51 502.57" stroke="hsl(0, 0%, 55.1%)" stroke-width="1.5"></path><path d="M971.33 706L1004.64 390.75" stroke="hsl(0, 0%, 55.1%)" stroke-width="1.5"></path><path d="M1159.28 229.28L1159.28 229.28" stroke="hsl(0, 0%, 55.1%)" stroke-width="1.5"></path><path d="M1159.28 229.28L1266.11 222.92" stroke="hsl(0, 0%, 55.1%)" stroke-width="1.5"></path><path d="M1103.39 536.55L1103.39 536.55" stroke="hsl(0, 0%, 55.1%)" stroke-width="1.5"></path><path d="M1103.39 536.55L1088.73 674.4" stroke="hsl(0, 0%, 55.1%)" stroke-width="1.5"></path><path d="M1088.73 674.4L1088.73 674.4" stroke="hsl(0, 0%, 55.1%)" stroke-width="1.5"></path><path d="M1088.73 674.4L1298.72 652.05" stroke="hsl(0, 0%, 55.1%)" stroke-width="1.5"></path><path d="M1282.59 -101.86L1282.59 -101.86" stroke="hsl(0, 0%, 55.1%)" stroke-width="1.5"></path><path d="M1282.59 -101.86L1453.33 -95.77" stroke="hsl(0, 0%, 55.1%)" stroke-width="1.5"></path><path d="M1282.59 -101.86L1278.36 107.94" stroke="hsl(0, 0%, 55.1%)" stroke-width="1.5"></path><path d="M1282.59 -101.86L1451.14 98.6" stroke="hsl(0, 0%, 55.1%)" stroke-width="1.5"></path><path d="M1282.59 -101.86L1584.68 -67.73" stroke="hsl(0, 0%, 55.1%)" stroke-width="1.5"></path><path d="M1282.59 -101.86L1266.11 222.92" stroke="hsl(0, 0%, 55.1%)" stroke-width="1.5"></path><path d="M1278.36 107.94L1278.36 107.94" stroke="hsl(0, 0%, 55.1%)" stroke-width="1.5"></path><path d="M1278.36 107.94L1266.11 222.92" stroke="hsl(0, 0%, 55.1%)" stroke-width="1.5"></path><path d="M1278.36 107.94L1159.28 229.28" stroke="hsl(0, 0%, 55.1%)" stroke-width="1.5"></path><path d="M1278.36 107.94L1462.36 247.54" stroke="hsl(0, 0%, 55.1%)" stroke-width="1.5"></path><path d="M1266.11 222.92L1266.11 222.92" stroke="hsl(0, 0%, 55.1%)" stroke-width="1.5"></path><path d="M1266.11 222.92L1241.33 377.03" stroke="hsl(0, 0%, 55.1%)" stroke-width="1.5"></path><path d="M1241.33 377.03L1241.33 377.03" stroke="hsl(0, 0%, 55.1%)" stroke-width="1.5"></path><path d="M1241.33 377.03L1304.03 519.04" stroke="hsl(0, 0%, 55.1%)" stroke-width="1.5"></path><path d="M1241.33 377.03L1159.28 229.28" stroke="hsl(0, 0%, 55.1%)" stroke-width="1.5"></path><path d="M1241.33 377.03L1424.09 376.69" stroke="hsl(0, 0%, 55.1%)" stroke-width="1.5"></path><path d="M1241.33 377.03L1103.39 536.55" stroke="hsl(0, 0%, 55.1%)" stroke-width="1.5"></path><path d="M1304.03 519.04L1304.03 519.04" stroke="hsl(0, 0%, 55.1%)" stroke-width="1.5"></path><path d="M1304.03 519.04L1298.72 652.05" stroke="hsl(0, 0%, 55.1%)" stroke-width="1.5"></path><path d="M1304.03 519.04L1452.37 544.96" stroke="hsl(0, 0%, 55.1%)" stroke-width="1.5"></path><path d="M1298.72 652.05L1298.72 652.05" stroke="hsl(0, 0%, 55.1%)" stroke-width="1.5"></path><path d="M1298.72 652.05L1452.37 544.96" stroke="hsl(0, 0%, 55.1%)" stroke-width="1.5"></path><path d="M1298.72 652.05L1103.39 536.55" stroke="hsl(0, 0%, 55.1%)" stroke-width="1.5"></path><path d="M1298.72 652.05L1577.78 653.66" stroke="hsl(0, 0%, 55.1%)" stroke-width="1.5"></path><path d="M1453.33 -95.77L1453.33 -95.77" stroke="hsl(0, 0%, 55.1%)" stroke-width="1.5"></path><path d="M1453.33 -95.77L1584.68 -67.73" stroke="hsl(0, 0%, 55.1%)" stroke-width="1.5"></path><path d="M1453.33 -95.77L1451.14 98.6" stroke="hsl(0, 0%, 55.1%)" stroke-width="1.5"></path><path d="M1462.36 247.54L1462.36 247.54" stroke="hsl(0, 0%, 55.1%)" stroke-width="1.5"></path><path d="M1462.36 247.54L1543.95 224.24" stroke="hsl(0, 0%, 55.1%)" stroke-width="1.5"></path><path d="M1424.09 376.69L1424.09 376.69" stroke="hsl(0, 0%, 55.1%)" stroke-width="1.5"></path><path d="M1424.09 376.69L1462.36 247.54" stroke="hsl(0, 0%, 55.1%)" stroke-width="1.5"></path><path d="M1424.09 376.69L1452.37 544.96" stroke="hsl(0, 0%, 55.1%)" stroke-width="1.5"></path><path d="M1424.09 376.69L1604.68 396.59" stroke="hsl(0, 0%, 55.1%)" stroke-width="1.5"></path><path d="M1424.09 376.69L1304.03 519.04" stroke="hsl(0, 0%, 55.1%)" stroke-width="1.5"></path><path d="M1452.37 544.96L1452.37 544.96" stroke="hsl(0, 0%, 55.1%)" stroke-width="1.5"></path><path d="M1452.37 544.96L1577.78 653.66" stroke="hsl(0, 0%, 55.1%)" stroke-width="1.5"></path><path d="M1584.68 -67.73L1584.68 -67.73" stroke="hsl(0, 0%, 55.1%)" stroke-width="1.5"></path><path d="M1584.68 -67.73L1451.14 98.6" stroke="hsl(0, 0%, 55.1%)" stroke-width="1.5"></path><path d="M1584.68 -67.73L1543.95 224.24" stroke="hsl(0, 0%, 55.1%)" stroke-width="1.5"></path><path d="M1543.95 224.24L1543.95 224.24" stroke="hsl(0, 0%, 55.1%)" stroke-width="1.5"></path><path d="M1543.95 224.24L1604.68 396.59" stroke="hsl(0, 0%, 55.1%)" stroke-width="1.5"></path><path d="M1543.95 224.24L1424.09 376.69" stroke="hsl(0, 0%, 55.1%)" stroke-width="1.5"></path><path d="M1543.95 224.24L1577.51 487.99" stroke="hsl(0, 0%, 55.1%)" stroke-width="1.5"></path><path d="M1604.68 396.59L1604.68 396.59" stroke="hsl(0, 0%, 55.1%)" stroke-width="1.5"></path><path d="M1604.68 396.59L1462.36 247.54" stroke="hsl(0, 0%, 55.1%)" stroke-width="1.5"></path><path d="M1604.68 396.59L1452.37 544.96" stroke="hsl(0, 0%, 55.1%)" stroke-width="1.5"></path><path d="M1577.78 653.66L1577.78 653.66" stroke="hsl(0, 0%, 55.1%)" stroke-width="1.5"></path><path d="M1577.78 653.66L1604.68 396.59" stroke="hsl(0, 0%, 55.1%)" stroke-width="1.5"></path><circle r="25" cx="-87.62" cy="513.14" fill="url(#SvgjsRadialGradient1948)"></circle><circle r="25" cx="-71.81" cy="706.55" fill="url(#SvgjsRadialGradient1948)"></circle><circle r="25" cx="1004.64" cy="390.75" fill="url(#SvgjsRadialGradient1948)"></circle><circle r="25" cx="1142.87" cy="83.19" fill="url(#SvgjsRadialGradient1948)"></circle><circle r="25" cx="1451.14" cy="98.6" fill="url(#SvgjsRadialGradient1948)"></circle><circle r="25" cx="1551.72" cy="87.04" fill="url(#SvgjsRadialGradient1948)"></circle><circle r="25" cx="1577.51" cy="487.99" fill="url(#SvgjsRadialGradient1948)"></circle><circle r="5" cx="101.48" cy="522.18" fill="#b6b6b6"></circle><circle r="5" cx="71.05" cy="700.31" fill="#b6b6b6"></circle><circle r="5" cx="190.54" cy="491.26" fill="#b6b6b6"></circle><circle r="5" cx="226.82" cy="639" fill="#b6b6b6"></circle><circle r="5" cx="367.78" cy="535.69" fill="#b6b6b6"></circle><circle r="5" cx="374.94" cy="708.77" fill="#b6b6b6"></circle><circle r="5" cx="494.27" cy="488.44" fill="#b6b6b6"></circle><circle r="5" cx="524.79" cy="649.38" fill="#b6b6b6"></circle><circle r="5" cx="711.14" cy="395.87" fill="#b6b6b6"></circle><circle r="5" cx="664.37" cy="546.57" fill="#b6b6b6"></circle><circle r="5" cx="813.88" cy="392.48" fill="#b6b6b6"></circle><circle r="5" cx="829.51" cy="502.57" fill="#b6b6b6"></circle><circle r="5" cx="822.37" cy="679.55" fill="#b6b6b6"></circle><circle r="5" cx="944.24" cy="500.83" fill="#b6b6b6"></circle><circle r="5" cx="971.33" cy="706" fill="#b6b6b6"></circle><circle r="5" cx="1159.28" cy="229.28" fill="#b6b6b6"></circle><circle r="5" cx="1103.39" cy="536.55" fill="#b6b6b6"></circle><circle r="5" cx="1088.73" cy="674.4" fill="#b6b6b6"></circle><circle r="5" cx="1282.59" cy="-101.86" fill="#b6b6b6"></circle><circle r="5" cx="1278.36" cy="107.94" fill="#b6b6b6"></circle><circle r="5" cx="1266.11" cy="222.92" fill="#b6b6b6"></circle><circle r="5" cx="1241.33" cy="377.03" fill="#b6b6b6"></circle><circle r="5" cx="1304.03" cy="519.04" fill="#b6b6b6"></circle><circle r="5" cx="1298.72" cy="652.05" fill="#b6b6b6"></circle><circle r="5" cx="1453.33" cy="-95.77" fill="#b6b6b6"></circle><circle r="5" cx="1462.36" cy="247.54" fill="#b6b6b6"></circle><circle r="5" cx="1424.09" cy="376.69" fill="#b6b6b6"></circle><circle r="5" cx="1452.37" cy="544.96" fill="#b6b6b6"></circle><circle r="5" cx="1584.68" cy="-67.73" fill="#b6b6b6"></circle><circle r="5" cx="1543.95" cy="224.24" fill="#b6b6b6"></circle><circle r="5" cx="1604.68" cy="396.59" fill="#b6b6b6"></circle><circle r="5" cx="1577.78" cy="653.66" fill="#b6b6b6"></circle></g><defs><mask id="SvgjsMask1946"><rect width="1440" height="560" fill="#ffffff"></rect></mask><linearGradient x1="84.72%" y1="139.29%" x2="15.28%" y2="-39.29%" gradientUnits="userSpaceOnUse" id="SvgjsLinearGradient1947"><stop stop-color="rgba(14, 42, 71, 1)" offset="1"></stop><stop stop-color="rgba(0, 30, 68, 0.64)" offset="1"></stop></linearGradient><radialGradient id="SvgjsRadialGradient1948"><stop stop-color="#ffffff" offset="0.1"></stop><stop stop-color="rgba(108, 108, 108, 1)" offset="0.2"></stop><stop stop-color="rgba(108, 108, 108, 0)" offset="1"></stop></radialGradient></defs></svg>